<svg width="24" height="24" viewBox="0 0 24 24" fill="none" xmlns="http://www.w3.org/2000/svg">
<path d="M19.1029 9.23936L19.5072 9.38676C20.8012 9.85731 21.4688 11.2878 20.9982 12.5818C20.8874 12.8866 20.7181 13.1669 20.4999 13.4069L20.3362 13.587C18.7878 15.2902 16.9883 16.747 14.9999 17.9069L12.0503 19.6275C12.0192 19.6456 11.9807 19.6456 11.9496 19.6275L8.99994 17.9069C7.01161 16.747 5.2121 15.2902 3.66368 13.587L3.49994 13.4069C2.57373 12.388 2.64881 10.8112 3.66765 9.88502C3.90764 9.66685 4.18789 9.4976 4.4927 9.38676L4.89754 9.23813M8.69402 15.2488L5.49731 10.9867C4.5032 9.66119 4.77183 7.78079 6.09731 6.78668C6.35527 6.59321 6.64273 6.44259 6.94863 6.34063L7.49994 6.15686C7.88094 6.02986 8.26598 5.91942 8.65399 5.82555L8.83619 5.78266C8.50977 6.38523 8.4146 7.10814 8.61424 7.80689M8.61424 7.80689L10.4532 14.2438M8.61424 7.80689C8.25805 6.56024 8.84029 5.23668 9.99994 4.65686C11.259 4.02734 12.7409 4.02734 13.9999 4.65686C15.1596 5.23668 15.7418 6.56024 15.3856 7.80689M13.5462 14.2437L15.3856 7.80689M15.3856 7.80689C15.5852 7.10853 15.4902 6.38604 15.1642 5.78367C15.6137 5.88538 16.0595 6.01005 16.4999 6.15686L17.0513 6.34063C18.6231 6.86457 19.4726 8.56353 18.9486 10.1354C18.8467 10.4413 18.696 10.7287 18.5026 10.9867L15.3053 15.2483" stroke="black" stroke-linecap="round"/>
<path fill-rule="evenodd" clip-rule="evenodd" d="M16.9998 16.5938L17 18.5C17 19.3284 16.3284 20 15.5 20H8.49997C7.67155 20 6.99997 19.3284 6.99997 18.5L6.99902 16.5929C7.64149 17.0653 8.30934 17.504 8.99997 17.9069L11.9496 19.6275C11.9807 19.6456 12.0192 19.6456 12.0504 19.6275L15 17.9069C15.6902 17.5042 16.3576 17.0658 16.9998 16.5938Z" stroke="black" stroke-linecap="round"/>
</svg>
