<svg width="24" height="24" viewBox="0 0 24 24" fill="none" xmlns="http://www.w3.org/2000/svg">
<g clip-path="url(#clip0_21_443)">
<path fill-rule="evenodd" clip-rule="evenodd" d="M6.53788 9.85546C8.23922 8.15412 10.73 7.8865 12.1012 9.25772C12.4682 9.62469 12.7178 10.0719 12.8539 10.5626C12.205 11.3774 11.4699 12.1189 10.6615 12.7742C10.6633 12.0478 10.4208 11.3688 9.91903 10.867C8.88241 9.83034 7.0896 9.90064 5.69261 10.9541C5.91548 10.5665 6.19809 10.1953 6.53788 9.85546ZM17.3843 11.551L17.327 11.5488C19.2662 11.5488 20.8383 13.4993 20.8383 15.9053C20.8383 16.1938 20.8156 16.4758 20.7727 16.7481C20.2876 15.2717 19.1091 14.2297 17.7322 14.2297C17.4643 14.2297 17.2038 14.2692 16.9546 14.3436C16.7809 14.0183 16.5582 13.7147 16.2865 13.443L16.3494 13.5097C16.6907 13.0029 16.9886 12.465 17.238 11.9016L17.3843 11.551ZM17.0705 3.81604C17.603 3.93383 17.9901 4.39453 18.0144 4.93941L18.1159 7.21555C18.2194 9.53844 17.5561 11.7179 16.3499 13.509L16.2865 13.443C14.7077 11.8642 12.0483 11.9396 10.217 13.5668L10.374 13.5684C11.2088 13.592 12.0027 13.8985 12.6026 14.4984C13.1126 15.0084 13.4105 15.6585 13.5029 16.3549C11.9653 17.3892 10.1328 18.0274 8.14573 18.1159C7.8358 18.1298 7.52541 18.1298 7.21548 18.1159L4.93934 18.0145C4.27423 17.9848 3.75908 17.4216 3.78872 16.7565C3.81301 16.2116 4.20013 15.7509 4.73268 15.6331C10.1769 14.429 14.4289 10.177 15.6331 4.73275C15.7769 4.08269 16.4204 3.67226 17.0705 3.81604ZM10.217 13.5668C12.0483 11.9396 14.7077 11.8642 16.2865 13.443C17.932 15.0885 17.7806 17.9077 15.9484 19.7399C14.4697 21.2186 12.3481 21.6025 10.7195 20.8306C11.266 20.6149 11.7879 20.2787 12.2418 19.8248C13.8123 18.2543 13.9738 15.8696 12.6026 14.4984C12.0027 13.8985 11.2088 13.592 10.374 13.5684L10.217 13.5668Z" stroke="black" stroke-linecap="round"/>
</g>
<defs>
<clipPath id="clip0_21_443">
<rect width="24" height="24" fill="white"/>
</clipPath>
</defs>
</svg>
