<svg width="24" height="24" viewBox="0 0 24 24" fill="none" xmlns="http://www.w3.org/2000/svg">
<path fill-rule="evenodd" clip-rule="evenodd" d="M7.8033 4.19906L8.5 4C10.7929 3.34487 13.2179 3.30447 15.5314 3.88284L16.4686 4.11716C18.6537 4.66344 20.3812 6.3343 21 8.5L21.2603 9.41102C21.7398 11.0893 21.6483 12.8794 21 14.5L20.9285 14.6788C20.3932 16.017 19.1317 16.9154 17.7049 16.9943L17.5 17C15.8817 17 14.3115 17.5508 13.0478 18.5617L12.5 19C10.9609 20.2313 8.86894 20.5153 7.0573 19.7388L6.5 19.5C4.33231 18.571 2.82021 16.5617 2.52769 14.2215L2.36162 12.893C2.12732 11.0186 2.52814 9.11977 3.5 7.5C4.4638 5.89367 6.00209 4.71369 7.8033 4.19906ZM15.5314 3.88284L16.4686 4.11716C18.6537 4.66344 20.3812 6.3343 21 8.5L21.2603 9.41102C21.3228 9.62966 21.3755 9.85019 21.4187 10.072C21.3256 10.5579 21.1856 11.0359 21 11.5L20.9285 11.6788C20.3932 13.017 19.1317 13.9154 17.7049 13.9943L17.5 14C15.8817 14 14.3115 14.5508 13.0478 15.5617L12.5 16C10.9609 17.2313 8.86894 17.5153 7.0573 16.7388L6.5 16.5C4.33231 15.571 2.82021 13.5617 2.52769 11.2215L2.42222 10.393C2.59949 9.3775 2.96237 8.39605 3.5 7.5C4.4638 5.89367 6.00209 4.71369 7.8033 4.19906L8.5 4C10.7929 3.34487 13.2179 3.30447 15.5314 3.88284ZM21.45 10.3056C20.502 8.3517 18.5211 7.11111 16.3494 7.11111H16.025C13.4973 7.11111 11.0252 6.36934 8.91514 4.97773L8.275 4.55556C8.09647 4.43782 7.91466 4.32669 7.72993 4.22222L7.8033 4.19906L8.5 4C9.64647 3.67244 10.8259 3.49855 12.008 3.47886L12.4513 3.4787C13.4857 3.4952 14.5192 3.6298 15.5314 3.88284L16.4686 4.11716C18.6537 4.66344 20.3812 6.3343 21 8.5L21.2603 9.41102C21.3502 9.7257 21.42 10.0443 21.4699 10.365L21.4658 10.3383C21.4605 10.3274 21.4553 10.3165 21.45 10.3056ZM6.03553 10.636C6.03553 11.4645 6.93096 12.136 8.03553 12.136C9.1401 12.136 10.0355 11.4645 10.0355 10.636C10.0355 9.80761 9.1401 9.13604 8.03553 9.13604C6.93096 9.13604 6.03553 9.80761 6.03553 10.636Z" stroke="black" stroke-linecap="square"/>
</svg>
