<svg width="24" height="24" viewBox="0 0 24 24" fill="none" xmlns="http://www.w3.org/2000/svg">
<path d="M3.70038 12.3481C5.3532 13.6109 6.43321 15.4815 6.70038 17.5442M2.76589 13.259L3.11211 13.51C4.40298 14.446 5.23485 15.8868 5.39999 17.4727L5.49492 18.3843C5.57095 19.1145 6.22454 19.6448 6.95474 19.5688C7.03302 19.5606 7.11042 19.5455 7.18603 19.5237C8.07992 19.2654 8.67779 18.425 8.62864 17.4959L8.46568 14.4152C8.3848 12.8861 7.57501 11.4888 6.28855 10.6584L5.98594 10.4631C4.95021 9.79457 3.59831 9.88594 2.66195 10.6878C1.97457 11.2764 1.89452 12.3108 2.48315 12.9982C2.56683 13.0959 2.66173 13.1835 2.76589 13.259Z" stroke="black" stroke-linecap="round"/>
<path d="M13.8432 4.80326C12.5735 6.45079 12.0144 8.53719 12.2902 10.5988M14.9816 5.44125L14.7121 5.77334C13.7075 7.01153 13.2769 8.61857 13.5278 10.1932L13.6721 11.0983C13.7876 11.8233 13.2936 12.5047 12.5686 12.6202C12.4908 12.6326 12.4122 12.6381 12.3335 12.6365C11.4032 12.6184 10.6082 11.9614 10.4152 11.0512L9.77525 8.03328C9.45763 6.53541 9.87817 4.9761 10.9059 3.84105L11.1476 3.57406C11.975 2.66024 13.3045 2.3986 14.4165 2.93076C15.2328 3.32143 15.5779 4.29987 15.1872 5.11618C15.1316 5.23224 15.0626 5.34135 14.9816 5.44125Z" stroke="black" stroke-linecap="round"/>
<path d="M14.2397 16.8501C16.1631 16.0581 17.6904 14.5307 18.4824 12.6074M13.5728 15.7283L13.9722 15.5755C15.4614 15.0055 16.6378 13.8291 17.2078 12.3399L17.5354 11.484C17.7978 10.7983 18.5664 10.4553 19.2521 10.7177C19.3256 10.7458 19.3964 10.7804 19.4638 10.8211C20.2604 11.3019 20.6204 12.2684 20.3324 13.1532L19.3777 16.0867C18.9038 17.5427 17.7599 18.6829 16.3024 19.152L15.9596 19.2624C14.7861 19.64 13.5039 19.2019 12.807 18.185C12.2954 17.4386 12.4858 16.4187 13.2322 15.9071C13.3384 15.8343 13.4527 15.7743 13.5728 15.7283Z" stroke="black" stroke-linecap="round"/>
</svg>
