<svg width="24" height="24" viewBox="0 0 24 24" fill="none" xmlns="http://www.w3.org/2000/svg">
<g clip-path="url(#clip0_21_448)">
<path d="M16.5255 10.6656C16.6162 10.7572 16.6851 10.8641 16.7311 10.9789L18.0194 10.9729C18.3922 10.9709 18.729 10.75 18.8794 10.4089C19.075 9.96527 18.9023 9.45235 18.4941 9.21265L18.4107 9.16998L19.359 8.84991C19.5963 8.7697 19.792 8.59866 19.9032 8.37432C20.1352 7.90651 19.9441 7.3392 19.4763 7.1072L19.1044 6.92208L19.3711 6.6563C19.9215 6.10586 19.9215 5.21342 19.3711 4.66297C18.8206 4.11253 17.9282 4.11253 17.3778 4.66297L17.0998 4.94006L16.8928 4.52377C16.7816 4.29943 16.5859 4.12839 16.3486 4.04818C15.854 3.88092 15.3174 4.14634 15.1501 4.64101L14.8568 5.50575L14.8496 5.48457C14.7143 5.11665 14.3648 4.87139 13.9727 4.86927C13.4538 4.86647 13.0309 5.28488 13.0281 5.80382L13.0208 7.22934C13.1086 7.27323 13.1904 7.33129 13.2628 7.40288M16.5255 10.6656C16.1583 10.2944 15.5597 10.2912 15.1884 10.6584L5.8417 19.9049C5.6118 20.1323 5.2816 20.2265 4.96632 20.1545M16.5255 10.6656C16.8007 10.9437 16.8759 11.3623 16.7156 11.7185L17.5342 11.3139C18.0023 11.0824 18.5694 11.2741 18.8009 11.7422C18.9119 11.9667 18.9294 12.226 18.8494 12.4633L18.6815 12.9611L19.5916 12.9612C20.3255 12.9612 20.9205 13.5561 20.9205 14.2901C20.9205 15.024 20.3255 15.6189 19.5916 15.6189L18.6815 15.6181L18.8494 16.1168C19.0161 16.6117 18.7502 17.148 18.2553 17.3147C18.018 17.3947 17.7587 17.3772 17.5342 17.2662L16.6385 16.8231L16.6661 16.9111C16.7853 17.3692 16.5447 17.854 16.0927 18.0294C15.7451 18.1643 15.3508 18.0823 15.0857 17.8201L12.8607 15.6189L7.47409 20.9478C6.73731 21.6766 5.5511 21.6766 4.81432 20.9478L3.72627 19.8714L4.96632 20.1545M4.96632 20.1545L3.99602 19.9325L3.77394 18.9621M3.77394 18.9621C3.70196 18.6468 3.79612 18.3166 4.02355 18.0867M3.77394 18.9621L4.05703 20.2021L2.98066 19.1141C2.25178 18.3773 2.25178 17.1911 2.98066 16.4543L8.30947 11.0677L6.1083 8.84267C5.84612 8.57764 5.76414 8.1833 5.89898 7.83574C6.07436 7.38369 6.55919 7.14314 7.01734 7.2623L7.10535 7.28992L6.66222 6.39418C6.55119 6.16972 6.53375 5.91039 6.61371 5.67309C6.78044 5.17824 7.31676 4.91226 7.8116 5.079L8.31035 5.24692L8.30947 4.33681C8.30947 3.60289 8.90444 3.00793 9.63836 3.00793C10.3723 3.00793 10.9672 3.60289 10.9672 4.33681L10.9673 5.24692L11.4651 5.079C11.7024 4.99904 11.9618 5.01648 12.1862 5.12751C12.6543 5.35902 12.846 5.92613 12.6145 6.39418L12.21 7.21278C12.5661 7.05252 12.9847 7.12773 13.2628 7.40288M4.02355 18.0867L10.5283 11.5109L13.0106 9.02926L13.0102 9.00204L13.27 8.73997M4.02355 18.0867L13.27 8.73997M13.27 8.73997C13.6373 8.36875 13.634 7.77011 13.2628 7.40288M16.7995 7.20058L15.8496 8.15043M9.63836 7.03782L9.63836 8.38112M7.29554 12.7519L11.2822 16.7385M16.8906 14.2901L15.5473 14.2901" stroke="black" stroke-linecap="round"/>
</g>
<defs>
<clipPath id="clip0_21_448">
<rect width="24" height="24" fill="white"/>
</clipPath>
</defs>
</svg>
