<svg width="24" height="24" viewBox="0 0 24 24" fill="none" xmlns="http://www.w3.org/2000/svg">
<g clip-path="url(#clip0_21_445)">
<path fill-rule="evenodd" clip-rule="evenodd" d="M7.75739 20.9853C7.1716 21.5711 6.22185 21.5711 5.63607 20.9853C5.17443 20.5236 5.07659 19.836 5.34254 19.2785L5.22148 19.1575C4.66404 19.4234 3.97638 19.3256 3.51475 18.864C2.92896 18.2782 2.92896 17.3284 3.51475 16.7426C4.10053 16.1568 5.05028 16.1568 5.63607 16.7426C5.76022 16.8668 5.85806 17.0073 5.92959 17.1572L8.11094 14.9749L9.52515 16.3891L7.34376 18.5709C7.49332 18.6424 7.63349 18.7401 7.75739 18.864C8.34317 19.4497 8.34317 20.3995 7.75739 20.9853ZM19.4246 5.07537C21.7678 7.41852 21.7678 11.2175 19.4246 13.5607C18.5428 14.4425 16.8653 15.1164 14.3923 15.5823C13.4044 15.7684 12.4956 16.248 11.7843 16.9585L11.6465 17.0962C11.2559 17.4867 10.6228 17.4867 10.2323 17.0962L7.40383 14.2678C7.01331 13.8772 7.01331 13.2441 7.40383 12.8535L7.53989 12.7175C8.25152 12.0059 8.73185 11.0962 8.91808 10.1072C9.38371 7.63454 10.0575 5.95727 10.9394 5.07537C13.2825 2.73223 17.0815 2.73223 19.4246 5.07537Z" stroke="black" stroke-linecap="round"/>
</g>
<defs>
<clipPath id="clip0_21_445">
<rect width="24" height="24" fill="white"/>
</clipPath>
</defs>
</svg>
