<svg width="24" height="24" viewBox="0 0 24 24" fill="none" xmlns="http://www.w3.org/2000/svg">
<path d="M5 8L7.05442 8.3424C7.23853 8.37309 7.42485 8.38851 7.61149 8.38851C9.48291 8.38851 11 6.87142 11 5L9 6V3L8.80036 3.0049C6.68397 3.10892 5 4.8578 5 7V8ZM5 8V8.63951C5 9.52169 5.29163 10.3791 5.8295 11.0784L7 12.6M6.5 13H5.23607C4.47852 13 3.786 13.428 3.44721 14.1056L3 15M5.8 16H5.23607C4.47852 16 3.786 16.428 3.44721 17.1056L3 18M8.5 19H7.23607C6.47852 19 5.786 19.428 5.44721 20.1056L5 21M17.5 13H18.7639C19.5215 13 20.214 13.428 20.5528 14.1056L21 15M18.2 16H18.7639C19.5215 16 20.214 16.428 20.5528 17.1056L21 18M15.5 19H16.7639C17.5215 19 18.214 19.428 18.5528 20.1056L19 21M19 8V8.63951C19 9.52169 18.7084 10.3791 18.1705 11.0784L17 12.6M19 8L16.9456 8.3424C16.7615 8.37309 16.5751 8.38851 16.3885 8.38851C14.5171 8.38851 13 6.87142 13 5L15 6V3L15.1996 3.0049C17.316 3.10892 19 4.8578 19 7V8ZM8.29042 18.8226L9.125 19.3125C10.9001 20.3544 13.0999 20.3544 14.875 19.3125L15.7096 18.8226C17.01 18.0593 17.9313 16.7863 18.25 15.3125C18.5085 14.1168 17.7488 12.9379 16.5531 12.6794L16.4816 12.6652L15.375 12.5C13.1372 12.1685 10.8628 12.1685 8.625 12.5L7.59039 12.6533C6.38027 12.8326 5.54461 13.9589 5.72389 15.169C5.73101 15.2171 5.73972 15.265 5.75 15.3125C6.06867 16.7863 6.99 18.0593 8.29042 18.8226Z" stroke="black" stroke-linecap="round"/>
<path fill-rule="evenodd" clip-rule="evenodd" d="M10.5 10.6V10.5V10.6Z" stroke="black" stroke-width="1.5" stroke-linecap="round" stroke-linejoin="round"/>
<path fill-rule="evenodd" clip-rule="evenodd" d="M13.5 10.6V10.5V10.6Z" stroke="black" stroke-width="1.5" stroke-linecap="round" stroke-linejoin="round"/>
</svg>
