<svg width="24" height="24" viewBox="0 0 24 24" fill="none" xmlns="http://www.w3.org/2000/svg">
<path fill-rule="evenodd" clip-rule="evenodd" d="M8.5 4C10.6881 4 12.6237 6.56725 13.8016 9.38508C14.6678 7.99375 15.7831 6.96154 17 6.96154C19.7614 6.96154 22 12.277 22 15.0385C22 17.7999 19.7614 20.0385 17 20.0385C15.6472 20.0385 14.4198 19.5012 13.5197 18.6284C12.3292 20.0763 10.5225 21 8.5 21C4.91015 21 2 18.0899 2 14.5C2 13.5862 2.18856 12.4573 2.52889 11.282L2.68393 10.7759C3.7507 7.47449 5.95447 4 8.5 4ZM8.5 21C12.0899 21 15 18.0899 15 14.5C15 13.5862 14.8114 12.4573 14.4711 11.282L14.3161 10.7759C13.2493 7.47449 11.0455 4 8.5 4C5.95447 4 3.7507 7.47449 2.68393 10.7759L2.52889 11.282C2.18856 12.4573 2 13.5862 2 14.5C2 18.0899 4.91015 21 8.5 21Z" stroke="black" stroke-linecap="round"/>
</svg>
