<svg width="24" height="24" viewBox="0 0 24 24" fill="none" xmlns="http://www.w3.org/2000/svg">
<path fill-rule="evenodd" clip-rule="evenodd" d="M8.36037 9.3778C12.9996 6.48412 19.1063 7.89919 22 12.5385L21.7714 12.8883C21.2213 13.6926 20.555 14.4118 19.7937 15.0224C15.9019 18.1434 10.374 17.8468 6.8371 14.5312C6.27002 15.9933 4.79851 16.9798 3.15189 16.8604L3 16.8462V16.5884C3 15.0437 3.67628 13.6327 4.77206 12.6672C3.75338 11.8768 3.0825 10.6671 3.0071 9.307L3 9.05027V8.23077L3.20728 8.2391C4.76443 8.34005 6.09767 9.29463 6.72703 10.6524C7.22336 10.1731 7.77122 9.74528 8.36037 9.3778ZM14.0372 17.1902L14.1688 17.1838C13.4398 17.9098 12.5462 18.4612 11.5291 18.7598C10.7389 18.9918 9.94352 19.0508 9.17657 18.9581C9.55108 18.1974 9.84154 17.3842 10.0385 16.5369C11.3133 17.0284 12.6773 17.2493 14.0372 17.1902ZM15.0133 7.83862L15.1168 7.99445C13.1572 7.68972 11.0984 7.96928 9.22076 8.89804C8.64696 7.68562 7.87731 6.62874 6.97078 5.76507C7.36191 5.54762 7.78076 5.37002 8.22294 5.2402C10.8327 4.47398 13.4983 5.59448 15.0133 7.83862Z" stroke="black" stroke-linecap="round"/>
<path fill-rule="evenodd" clip-rule="evenodd" d="M17.5 11.6V11.5V11.6Z" stroke="black" stroke-width="1.5" stroke-linecap="round" stroke-linejoin="round"/>
</svg>
