<svg width="24" height="24" viewBox="0 0 24 24" fill="none" xmlns="http://www.w3.org/2000/svg">
<path fill-rule="evenodd" clip-rule="evenodd" d="M3.20715 18H20.7929C21.0691 18 21.2929 18.2239 21.2929 18.5C21.2929 18.6326 21.2403 18.7598 21.1465 18.8536L20 20H4.00005L2.8536 18.8536C2.65834 18.6583 2.65834 18.3417 2.8536 18.1464C2.94737 18.0527 3.07455 18 3.20715 18Z" stroke="black" stroke-linecap="round"/>
<path fill-rule="evenodd" clip-rule="evenodd" d="M7.2 8C7.65344 8 8.07385 8.16202 8.40134 8.435C8.10341 8.68105 7.88276 9.01861 7.78262 9.40932L7.74722 9.5799L6.4 18H4L5.34722 9.5799C5.49286 8.66964 6.27816 8 7.2 8ZM16.8 8C17.7218 8 18.5071 8.66964 18.6528 9.5799L20 18H17.6L16.2528 9.5799C16.1788 9.11739 15.9396 8.71699 15.6013 8.435C15.927 8.16169 16.347 8 16.8 8ZM12 8C12.9036 8 13.6555 8.69421 13.7276 9.5949L14.4 18H9.6L10.2724 9.5949C10.3445 8.69421 11.0964 8 12 8ZM13.1746 8.45879L13.2417 8.40017C13.5626 8.14829 13.9662 8 14.4 8C15.3218 8 16.1071 8.66964 16.2528 9.5799L17.6 18H14.4L13.7276 9.5949C13.6956 9.19459 13.5292 8.83507 13.275 8.55916L13.1746 8.45879ZM9.6 8C10.0656 8 10.4964 8.17082 10.8275 8.45719C10.5153 8.74417 10.3085 9.14362 10.2724 9.5949L9.6 18H6.4L7.74722 9.5799C7.89286 8.66964 8.67816 8 9.6 8Z" stroke="black" stroke-linecap="round"/>
<path fill-rule="evenodd" clip-rule="evenodd" d="M9.41165 6.48233C8.00938 6.20188 7 4.97063 7 3.54059V3L9.58835 3.51767C10.9906 3.79812 12 5.02937 12 6.45941C12 5.02937 13.0094 3.79812 14.4117 3.51767L17 3V3.54059C17 4.97063 15.9906 6.20188 14.5883 6.48233L12 7L9.41165 6.48233Z" stroke="black" stroke-linecap="round"/>
</svg>
