<svg width="24" height="24" viewBox="0 0 24 24" fill="none" xmlns="http://www.w3.org/2000/svg">
<path fill-rule="evenodd" clip-rule="evenodd" d="M4.90712 11.4653C7.01341 13.0451 7.44024 16.0332 5.86047 18.1395C5.64366 18.4286 5.39486 18.6918 5.11901 18.9243L4.90712 19.0928C2.80084 17.5131 2.37401 14.5249 3.95378 12.4186C4.17059 12.1296 4.41939 11.8663 4.69524 11.6338L4.90712 11.4653ZM8.72076 7.65154C10.827 9.2313 11.2539 12.2194 9.67411 14.3257C9.4573 14.6148 9.2085 14.878 8.93265 15.1105L8.72076 15.2791C6.61448 13.6993 6.18765 10.7112 7.76742 8.60488C7.98423 8.31581 8.23303 8.05256 8.50888 7.82007L8.72076 7.65154ZM12.5344 3.83777C14.6407 5.41754 15.0675 8.40567 13.4877 10.512C13.2709 10.801 13.0221 11.0643 12.7463 11.2968L12.5344 11.4653C10.4281 9.88554 10.0013 6.8974 11.5811 4.79112C11.7979 4.50204 12.0467 4.2388 12.3225 4.0063L12.5344 3.83777ZM20.1617 11.4653C18.5821 13.5715 15.5941 13.9984 13.4879 12.4188C13.1988 12.202 12.9355 11.9531 12.703 11.6772L12.5344 11.4653C14.114 9.35909 17.102 8.93219 19.2082 10.5118C19.4973 10.7286 19.7606 10.9775 19.9931 11.2534L20.1617 11.4653ZM16.348 15.2791C14.7684 17.3853 11.7805 17.8122 9.67427 16.2326C9.38514 16.0157 9.12184 15.7669 8.88931 15.491L8.72076 15.2791C10.3004 13.1729 13.2883 12.746 15.3945 14.3256C15.6837 14.5424 15.947 14.7912 16.1795 15.0671L16.348 15.2791ZM12.5344 19.0928C10.9548 21.1991 7.96685 21.626 5.86063 20.0463C5.5715 19.8295 5.30821 19.5807 5.07568 19.3048L4.90712 19.0928C6.48673 16.9866 9.47468 16.5597 11.5809 18.1393C11.87 18.3562 12.1333 18.605 12.3658 18.8809L12.5344 19.0928ZM20.9515 3.04791C21.3239 5.65443 19.5128 8.06908 16.9065 8.4414C16.5488 8.4925 16.1867 8.50272 15.8272 8.47206L15.5582 8.44119C15.1859 5.83488 16.9969 3.42023 19.6032 3.04791C20.0504 2.98403 20.5043 2.98403 20.9515 3.04791Z" stroke="black" stroke-linecap="round"/>
</svg>
