<svg width="24" height="24" viewBox="0 0 24 24" fill="none" xmlns="http://www.w3.org/2000/svg">
<path d="M10.6678 17.9236C11.1036 18.7384 11.7431 19.3779 12.5579 19.8136C13.3727 20.2494 14.3628 20.4815 15.5 20.4815C16.6371 20.4815 17.6273 20.2494 18.4421 19.8136C19.2569 19.3779 19.8964 18.7384 20.3322 17.9236C20.7679 17.1088 21 16.1186 21 14.9815C21 13.8443 20.7679 12.8542 20.3322 12.0393C19.8964 11.2245 19.2569 10.5851 18.4421 10.1493C17.6273 9.71352 16.6371 9.48146 15.5 9.48146C14.3628 9.48146 13.3727 9.71352 12.5579 10.1493M10.6678 17.9236C10.232 17.1088 9.99998 16.1186 9.99998 14.9815C9.99998 13.8443 10.232 12.8542 10.6678 12.0393C11.1036 11.2245 11.7431 10.5851 12.5579 10.1493M10.6678 17.9236C10.5571 17.7166 10.4595 17.4982 10.3756 17.269C10.2565 17.3455 10.1302 17.4164 9.99998 17.4815C8.74095 18.111 7.25901 18.111 5.99998 17.4815C4.73807 16.8505 3.83815 15.6723 3.56146 14.2888L3.49998 13.9815C3.1694 12.3286 3.142 10.6293 3.41912 8.96664L3.63238 7.6871C3.86334 6.30134 4.74342 5.10974 5.99998 4.48146C7.25901 3.85194 8.74095 3.85194 9.99998 4.48146C11.2565 5.10974 12.1366 6.30134 12.3676 7.6871L12.5808 8.96664C12.6419 9.33278 12.6881 9.7007 12.7196 10.0695L12.5579 10.1493M17.9749 12.5066L17.5606 12.9208M13.4393 17.0421L13.0251 17.4563M13.4393 12.9208L13.0251 12.5066M17.9749 17.4563L17.5606 17.0421M18.5858 14.9815H18.4142M12.5858 14.9815H12.4142M15.5 12.0672V11.8957M15.5 18.0672C15.5 18.0002 15.5 17.8957 15.5 17.8957M15.5 13.4815C16.3284 13.4815 17 14.153 17 14.9815C17 15.8099 16.3284 16.4815 15.5 16.4815C14.6716 16.4815 14 15.8099 14 14.9815C14 14.153 14.6716 13.4815 15.5 13.4815Z" stroke="black" stroke-linecap="round"/>
</svg>
