<svg width="24" height="24" viewBox="0 0 24 24" fill="none" xmlns="http://www.w3.org/2000/svg">
<g clip-path="url(#clip0_21_436)">
<path d="M3.50008 20.5L18.0356 5.96446M3.50008 20.5L4.79097 19.2091C5.85269 18.1474 6.06127 16.5017 5.298 15.2087M3.50008 20.5L7.66577 16.3343C8.63633 15.3637 8.63633 13.7902 7.66577 12.8196M3.50008 20.5L11.2013 12.7988C11.7813 12.2187 11.7813 11.2783 11.2013 10.6983M3.50008 20.5L15.7975 8.20258C16.1823 7.8178 16.1823 7.19396 15.7975 6.80918M3.50008 20.5L14.3833 9.61679C14.7681 9.23202 14.7681 8.60817 14.3833 8.22339M3.50008 20.5L4.80589 19.1942C5.86581 18.1343 7.49827 17.9015 8.81221 18.6229M3.50008 20.5L7.64495 16.3551C8.62701 15.3731 10.2192 15.3731 11.2013 16.3551M3.50008 20.5L11.1805 12.8196C11.772 12.2281 12.7311 12.2281 13.3226 12.8196M3.50008 20.5L15.7767 8.22339C16.173 7.82712 16.8154 7.82712 17.2117 8.22339M3.50008 20.5L14.3625 9.63761C14.7587 9.24134 15.4012 9.24134 15.7975 9.63761M6.59325 11.7259L7.12595 12.6137C7.55217 13.3241 7.32182 14.2455 6.61145 14.6717C6.37833 14.8116 6.11157 14.8855 5.83971 14.8855L4.77432 14.8855C3.94589 14.8855 3.27432 14.2139 3.27432 13.3855C3.27432 13.1136 3.3482 12.8468 3.48808 12.6137L4.02077 11.7259C4.44699 11.0155 5.36838 10.7852 6.07875 11.2114M6.59325 11.7259C6.46658 11.5148 6.28988 11.3381 6.07875 11.2114M6.59325 11.7259L6.99883 12.4043C7.1342 12.4445 7.27757 12.466 7.42597 12.466L8.49136 12.466C8.76322 12.466 9.02998 12.3921 9.2631 12.2523C9.97347 11.8261 10.2038 10.9047 9.77759 10.1943M6.07875 11.2114C6.03218 11.1834 5.9847 11.1583 5.93652 11.136C5.92923 11.0807 5.92597 11.0238 5.92597 10.966C5.92597 10.6942 5.99985 10.4274 6.13973 10.1943L6.67242 9.30647C7.09864 8.5961 8.02003 8.36575 8.7304 8.79197M11.4072 16.8949L12.295 17.4276C12.5061 17.5543 12.6828 17.731 12.8095 17.9421C13.2357 18.6525 13.0054 19.5739 12.295 20.0001M11.4072 16.8949C10.6968 16.4687 9.77542 16.6991 9.3492 17.4094C9.20932 17.6426 9.13544 17.9093 9.13544 18.1812L9.13544 19.2466C9.13544 20.075 9.80701 20.7466 10.6354 20.7466C10.9073 20.7466 11.1741 20.6727 11.4072 20.5328L12.295 20.0001M11.4072 16.8949L11.6163 17.0211C11.5763 16.886 11.5549 16.743 11.5549 16.5949L11.5549 15.5295C11.5549 15.2577 11.6287 14.9909 11.7686 14.7578C12.1948 14.0474 13.1162 13.8171 13.8266 14.2433M12.295 20.0001C12.9588 19.6018 13.2035 18.7712 12.884 18.0853C12.9401 18.0917 12.9971 18.0949 13.0549 18.0949C13.3267 18.0949 13.5935 18.021 13.8266 17.8812L14.7144 17.3485C15.4248 16.9222 15.6551 16.0009 15.2289 15.2905M9.77759 10.1943L9.2449 9.30647C9.11822 9.09534 8.94153 8.91865 8.7304 8.79197M9.77759 10.1943C9.80611 10.2418 9.83169 10.2903 9.85438 10.3395L9.9615 10.3447L11.0269 10.3447C11.2988 10.3447 11.5655 10.2708 11.7986 10.131C12.509 9.70473 12.7394 8.78334 12.3131 8.07297L11.7804 7.18515C11.6538 6.97402 11.4771 6.79732 11.2659 6.67065C10.5556 6.24443 9.63418 6.47478 9.20796 7.18515L8.67526 8.07297C8.56569 8.25558 8.49661 8.45883 8.47308 8.66888C8.56099 8.70108 8.64715 8.74202 8.7304 8.79197M15.2289 15.2905C15.1022 15.0794 14.9255 14.9027 14.7144 14.776L13.8266 14.2433M15.2289 15.2905C15.2789 15.3737 15.3198 15.4599 15.3519 15.5491C15.5621 15.5243 15.7653 15.4552 15.9479 15.3456L16.8357 14.8129C17.5461 14.3867 17.7765 13.4653 17.3502 12.755C17.2236 12.5438 17.0469 12.3671 16.8357 12.2405L15.9479 11.7078C15.2375 11.2815 14.3162 11.5119 13.8899 12.2223C13.7501 12.4554 13.6762 12.7221 13.6762 12.994L13.6762 14.0594L13.6814 14.1665C13.7306 14.1892 13.7791 14.2148 13.8266 14.2433M14.6484 5.83691C15.063 6.52788 14.839 7.42411 14.148 7.83869C13.9212 7.97475 13.6618 8.04662 13.3973 8.04662L13.2479 8.04662C12.4421 8.04662 11.7889 7.39338 11.7889 6.58758C11.7889 6.32314 11.8607 6.06367 11.9968 5.83691C12.4361 5.10468 13.3859 4.86724 14.1181 5.30658C14.3357 5.43715 14.5179 5.61929 14.6484 5.83691ZM18.8911 10.0795C19.3057 10.7705 19.0816 11.6668 18.3906 12.0813C18.1639 12.2174 17.9044 12.2893 17.64 12.2893L17.4906 12.2893C16.6847 12.2893 16.0315 11.636 16.0315 10.8302C16.0315 10.5658 16.1034 10.3063 16.2394 10.0795C16.6788 9.34732 17.6285 9.10988 18.3608 9.54922C18.5784 9.67979 18.7605 9.86193 18.8911 10.0795ZM17.4769 4.4227C17.8915 5.11367 17.6674 6.0099 16.9764 6.42448C16.7497 6.56053 16.4902 6.6324 16.2258 6.6324L16.0763 6.6324C15.2705 6.6324 14.6173 5.97917 14.6173 5.17336C14.6173 4.90892 14.6892 4.64945 14.8252 4.42269C15.2646 3.69046 16.2143 3.45303 16.9465 3.89236C17.1642 4.02294 17.3463 4.20507 17.4769 4.4227ZM20.3053 7.25112C20.7199 7.94209 20.4958 8.83832 19.8049 9.25291C19.5781 9.38896 19.3186 9.46083 19.0542 9.46083L18.9048 9.46083C18.099 9.46083 17.4457 8.8076 17.4457 8.00179C17.4457 7.73735 17.5176 7.47788 17.6537 7.25112C18.093 6.51889 19.0427 6.28145 19.775 6.72079C19.9926 6.85137 20.1747 7.0335 20.3053 7.25112ZM21.0124 3.71559C21.427 4.40656 21.2029 5.30279 20.512 5.71737C20.2852 5.85343 20.0257 5.9253 19.7613 5.9253L19.6119 5.9253C18.8061 5.9253 18.1528 5.27206 18.1528 4.46626C18.1528 4.20182 18.2247 3.94235 18.3608 3.71559C18.8001 2.98336 19.7498 2.74592 20.4821 3.18526C20.6997 3.31583 20.8818 3.49797 21.0124 3.71559Z" stroke="black" stroke-linecap="round"/>
</g>
<defs>
<clipPath id="clip0_21_436">
<rect width="24" height="24" fill="white"/>
</clipPath>
</defs>
</svg>
