<svg width="24" height="24" viewBox="0 0 24 24" fill="none" xmlns="http://www.w3.org/2000/svg">
<path fill-rule="evenodd" clip-rule="evenodd" d="M11.8015 8.76093C13.7651 7.32268 16.5118 7.51171 18.2597 9.25959L18.5001 9.49999C18.8787 9.87864 19.0743 10.403 19.0362 10.9372C18.9635 11.9543 18.08 12.72 17.0629 12.6473L12.5981 12.3284C12.582 12.3273 12.5659 12.3259 12.5499 12.3244C12.59 12.53 12.6259 12.738 12.6592 12.9464L12.4916 13.735C12.1697 15.263 12.2708 16.8498 12.784 18.3246L12.8601 18.5432C12.8902 18.6299 12.9259 18.7131 12.9664 18.7926C12.8326 19.5784 12.2756 20.2415 11.5001 20.5C10.7329 20.7557 9.90371 20.3411 9.64799 19.574L9.61657 19.4661L9.43729 18.7489C9.18011 17.7202 8.7674 16.7375 8.2141 15.8347L8.00006 15.5C7.34175 14.5125 6.91294 13.3902 6.74511 12.2153L6.38085 9.66551C6.29783 9.0844 6.36646 8.5102 6.56073 7.98788L11.3869 8.59124C11.5142 8.60716 11.6416 8.61029 11.7674 8.60121L11.8015 8.76093ZM11.5001 8.99999C10.7056 9.68099 10.6136 10.8771 11.2945 11.6716C11.6239 12.0559 12.0933 12.2924 12.5981 12.3284L17.0629 12.6473C18.08 12.72 18.9635 11.9543 19.0362 10.9372C19.0743 10.403 18.8787 9.87864 18.5001 9.49999L18.2597 9.25959C16.4203 7.42028 13.475 7.30717 11.5001 8.99999ZM12.7766 12.383L16.7321 12.6972C16.7149 12.8377 16.6832 12.9784 16.6362 13.1175L16.555 13.3796C16.2322 14.5214 16.2911 15.7403 16.7271 16.8493L16.7978 17.0454C17.1141 18.0675 16.6268 19.1799 15.6388 19.6318L15.5284 19.6823C15.4724 19.7079 15.4153 19.7308 15.3572 19.7511C14.3341 20.1071 13.2161 19.5663 12.8601 18.5432L12.784 18.3246C12.2708 16.8498 12.1697 15.263 12.4916 13.735L12.7766 12.383ZM12.5356 4.82842L13.0001 5.29289C13.758 6.05086 13.758 7.27978 13.0001 8.03775C12.9505 8.08726 12.8987 8.13377 12.8448 8.17719C12.6016 8.27535 12.365 8.39536 12.1369 8.53558C11.8965 8.60375 11.6416 8.62308 11.3869 8.59124L5.96145 7.91306C4.85452 7.77469 4.06934 6.76518 4.2077 5.65825C4.27568 5.11449 4.56166 4.62168 5.00006 4.29289C7.29524 2.5715 10.5069 2.79975 12.5356 4.82842Z" stroke="black" stroke-linecap="round"/>
</svg>
