<svg width="24" height="24" viewBox="0 0 24 24" fill="none" xmlns="http://www.w3.org/2000/svg">
<path d="M10 3H15M8.30755 10.5116L9.23629 9.03657C10.0507 7.74309 10.5742 6.288 10.7705 4.77212L11 3H14L14.2075 4.65972C14.4002 6.20137 14.9266 7.68251 15.75 9L16.696 10.5136C16.8947 10.8315 17 11.1988 17 11.5736V19C17 20.1046 16.1046 21 15 21H10C8.89543 21 8 20.1046 8 19V11.5772C8 11.2001 8.10662 10.8307 8.30755 10.5116ZM8 14L8.62829 14.2094C10.1137 14.7046 11.7474 14.4394 13 13.5L13.2111 13.3416C14.2466 12.5651 15.6124 12.404 16.7936 12.9047L17 13V19C17 20.1046 16.1046 21 15 21H10C8.89543 21 8 20.1046 8 19V14Z" stroke="black" stroke-linecap="round"/>
</svg>
