<svg width="24" height="24" viewBox="0 0 24 24" fill="none" xmlns="http://www.w3.org/2000/svg">
<path d="M13.1451 11.6993C15.3306 11.4215 17.4889 12.6676 18.3412 14.6993M13.7482 5.99854L16.0184 7.81467C16.499 8.19919 16.7908 8.73233 16.8805 9.29582C15.8618 8.90955 14.7291 8.7969 13.5929 9.0216L12.6986 9.19843C12.3165 9.274 11.9527 9.42327 11.6276 9.6379C10.6499 10.2835 10.1731 11.4032 10.3013 12.4936C8.52565 12.5143 6.74907 12.3498 5.00002 12C3.71324 11.7426 2.87872 10.4909 3.13608 9.20408C3.24572 8.65589 3.54514 8.16391 3.98169 7.81467L6.25185 5.99854C8.44316 4.24549 11.5569 4.24549 13.7482 5.99854ZM7.49983 12.318C8.43046 12.4282 9.36567 12.487 10.3012 12.4943C10.3541 12.9444 10.5109 13.3913 10.779 13.7974L11.08 13.725C11.7266 13.5871 12.3912 13.5573 13.0467 13.6363L13.0948 13.786L11.5111 16.5294C11.2868 16.9178 11.2077 17.3502 11.2568 17.7638C10.8653 17.9171 10.4399 18 10 18C8.61931 18 7.50002 16.8807 7.50002 15.5L7.49983 12.318ZM20.4362 12.9726L20.7302 13.8355C21.2646 15.4038 20.4263 17.1083 18.858 17.6427C18.563 17.7432 18.2546 17.7969 17.944 17.8025L17.7072 17.7974C17.4981 17.0167 17.1334 16.2877 16.6366 15.6534L14.9752 18.5294C14.4229 19.486 13.1997 19.8137 12.2431 19.2615C11.2865 18.7092 10.9588 17.486 11.5111 16.5294L13.172 13.6528C12.476 13.5539 11.7678 13.5783 11.08 13.725L10.779 13.7974C9.86417 12.4117 10.245 10.5508 11.6276 9.6379C11.9527 9.42327 12.3165 9.274 12.6986 9.19843L13.5929 9.0216C16.5416 8.43847 19.4669 10.1273 20.4362 12.9726Z" stroke="black" stroke-linecap="round"/>
</svg>
