<svg width="24" height="24" viewBox="0 0 24 24" fill="none" xmlns="http://www.w3.org/2000/svg">
<path fill-rule="evenodd" clip-rule="evenodd" d="M12 21C16 19.6667 18 17.4412 18 14.3235V12H5.99997V14.3235C5.99997 17.4412 7.99997 19.6667 12 21ZM7.49997 7L10.2747 6.20722C10.704 6.08456 11 5.69218 11 5.2457V4H13L12.5575 4.88499C12.3105 5.37897 12.5107 5.97964 13.0047 6.22663C13.0699 6.25926 13.1386 6.28465 13.2094 6.30235L16 7C18.1422 7.53555 19.4701 9.65674 19.045 11.7991L19 12H4.99997L4.88282 11.5314C4.39055 9.5623 5.5484 7.55759 7.49997 7Z" stroke="black" stroke-linecap="square"/>
</svg>
