<svg width="24" height="24" viewBox="0 0 24 24" fill="none" xmlns="http://www.w3.org/2000/svg">
<path d="M10 6C13.866 6 17 9.13401 17 13C17 13.3746 16.9706 13.7423 16.9139 14.101L13.7157 10.9038C12.6557 11.9639 12 13.4283 12 15.0459C12 16.5832 12.5922 17.9822 13.5609 19.0273C12.518 19.6454 11.3004 20 10 20C6.13401 20 3 16.866 3 13C3 9.13401 6.13401 6 10 6ZM10 6L7.41165 5.48233C6.00938 5.20188 5 3.97063 5 2.54059V2L7.58835 2.51767C8.99062 2.79812 10 4.02937 10 5.45941V7M10 6V7M10 7C10 5.77427 10.6925 4.65374 11.7889 4.10557L12 4M14.9902 12.2745L14.9388 12.2231C14.5566 11.8408 14.1489 11.4332 13.7157 11C12.6557 12.0601 12 13.5245 12 15.1421C12 15.5333 12.0383 15.9155 12.1115 16.2852C12.1868 16.6662 12.2991 17.0338 12.4445 17.3844C12.7414 18.1003 13.1762 18.7447 13.7157 19.2843C14.2553 19.8238 14.8997 20.2586 15.6156 20.5555C15.9662 20.7009 16.3338 20.8132 16.7148 20.8885C17.0845 20.9617 17.4667 21 17.8579 21C19.4755 21 20.9399 20.3443 22 19.2843C21.5668 18.8511 21.1592 18.4434 20.7769 18.0612L20.7255 18.0098M14.9902 12.2745C14.2563 13.0084 13.8024 14.0223 13.8024 15.1421M14.9902 12.2745L15.2207 12.5049C15.313 12.5973 15.4038 12.6881 15.493 12.7772L16.009 13.2932C16.0918 13.376 16.173 13.4573 16.2526 13.5369L17.3276 14.6118C17.5187 14.8029 17.6954 14.9797 17.8579 15.1421M13.8024 15.1421C13.8024 17.3819 15.6181 19.1976 17.8579 19.1976M13.8024 15.1421C13.8024 15.4129 13.829 15.6775 13.8796 15.9334L17.8579 15.1421M17.8579 19.1976C18.9777 19.1976 19.9916 18.7437 20.7255 18.0098M17.8579 19.1976C17.3079 19.1976 16.7835 19.0881 16.3053 18.8898L17.8579 15.1421M20.7255 18.0098L20.4951 17.7793C20.4027 17.687 20.3119 17.5962 20.2228 17.507L19.7068 16.991C19.624 16.9082 19.5427 16.827 19.4631 16.7474L18.3882 15.6724C18.1971 15.4813 18.0203 15.3046 17.8579 15.1421" stroke="black" stroke-linecap="round"/>
</svg>
