<svg width="24" height="24" viewBox="0 0 24 24" fill="none" xmlns="http://www.w3.org/2000/svg">
<path d="M7.96253 7.67507C5.21274 8.40423 3.94437 11.1442 4.31769 13.9224C4.76091 17.2207 7.23302 19.3868 11.734 20.4208L12.0936 20.5C16.6979 19.5 19.2898 17.3075 19.8695 13.9224C20.3438 11.1519 18.9744 8.40423 16.2246 7.67498C14.7603 7.28678 13.2742 7.56322 12.0946 8.31809C10.9138 7.5634 9.42727 7.28671 7.96253 7.67507ZM7.96253 7.67507C10.7124 6.94605 13.5388 8.56082 14.2756 11.282M15 4L14.8461 4.05132C13.1464 4.61786 12 6.20843 12 8V5.45941C12 4.02937 10.9906 2.79812 9.58836 2.51767L7.00001 2V2.54059C7.00001 3.97063 8.00939 5.20188 9.41167 5.48233L12 6" stroke="black" stroke-linecap="round"/>
</svg>
