<svg width="24" height="24" viewBox="0 0 24 24" fill="none" xmlns="http://www.w3.org/2000/svg">
<g clip-path="url(#clip0_21_441)">
<path fill-rule="evenodd" clip-rule="evenodd" d="M7.23229 21.4246C6.64651 22.0104 5.69676 22.0104 5.11097 21.4246C4.64934 20.963 4.5515 20.2753 4.81745 19.7179L4.69639 19.5968C4.13895 19.8628 3.45128 19.7649 2.98965 19.3033C2.40387 18.7175 2.40387 17.7678 2.98965 17.182C3.57544 16.5962 4.52519 16.5962 5.11097 17.182C5.23513 17.3061 5.33297 17.4466 5.40449 17.5966L7.23041 15.7699C7.42175 16.0384 7.63787 16.2947 7.87874 16.5355C8.11986 16.7767 8.37639 16.993 8.64517 17.1845L6.81866 19.0102C6.96823 19.0817 7.1084 19.1794 7.23229 19.3033C7.81808 19.8891 7.81808 20.8388 7.23229 21.4246ZM12.4008 3.52957L12.4143 3.51472C13.5858 2.34314 16.4351 3.29289 18.7782 5.63604C21.1214 7.97918 22.0711 10.8284 20.8996 12L16.364 16.5355C14.0209 18.8787 10.2219 18.8787 7.87874 16.5355C5.53559 14.1924 5.53559 10.3934 7.87874 8.05025L12.4008 3.52957ZM12.4143 3.51472C11.2427 4.68629 12.1924 7.53553 14.5356 9.87868C16.8787 12.2218 19.728 13.1716 20.8996 12C22.0711 10.8284 21.1214 7.97918 18.7782 5.63604C16.4351 3.29289 13.5858 2.34314 12.4143 3.51472ZM15.2427 6.34314C14.8522 6.73367 15.1688 7.68342 15.9498 8.46446C16.7309 9.24551 17.6806 9.56209 18.0711 9.17157C18.4617 8.78105 18.1451 7.8313 17.364 7.05025C16.583 6.2692 15.6332 5.95262 15.2427 6.34314Z" stroke="black" stroke-linecap="round"/>
</g>
<defs>
<clipPath id="clip0_21_441">
<rect width="24" height="24" fill="white"/>
</clipPath>
</defs>
</svg>
