<svg width="24" height="24" viewBox="0 0 24 24" fill="none" xmlns="http://www.w3.org/2000/svg">
<path d="M4.98279 15.0509C4.97128 14.9015 4.95408 14.7543 4.93149 14.6096C4.88649 14.3213 4.82006 14.043 4.73444 13.7775M18 7.5C18 7.15338 17.9695 6.81592 17.9118 6.4918M16 11.5C16 11.1952 15.9764 10.8974 15.9315 10.6096C15.9089 10.4648 15.8809 10.3225 15.8478 10.1832M7.98279 17.0509C7.97128 16.9015 7.95408 16.7543 7.93149 16.6096M6.93149 11.6096C6.88649 11.3213 6.82006 11.043 6.73444 10.7775M14 7.5C14 7.04019 13.9464 6.5965 13.8467 6.17869M11 9.5C11 9.15826 10.9704 8.82542 10.9142 8.5055M9.90754 12.4681C9.86411 12.2301 9.80597 11.9993 9.73444 11.7775M10 15.5C10 16.6851 10.3563 17.7631 10.9387 18.5668C10.0877 19.0464 9.27455 19.2857 8.5 19.2857C6.01472 19.2857 3 16.6954 3 13.5C3 10.4015 5.01885 8.50399 7.28671 7.77883L7.5 7.71428L7.72827 7.64801L10.4947 6.79964L13.6237 5.77679C15.1132 5.2899 16.7464 5.55981 18 6.5C19.1639 7.37293 19.7519 8.80851 19.5465 10.2373L19.5097 10.4514L19.5 10.5C19.3932 11.0342 19.2124 11.5449 18.9668 12.0193C18.6718 11.8801 18.3596 11.7743 18.0353 11.705L17.7899 11.66L14.3324 11.128C14.0656 11.0444 13.7868 11 13.5 11C11.567 11 10 13.0147 10 15.5Z" stroke="black" stroke-linecap="round"/>
<path d="M13.5 20C15.433 20 17 17.9853 17 15.5C17 13.0147 15.433 11 13.5 11M13.5 20C11.567 20 10 17.9853 10 15.5C10 13.0147 11.567 11 13.5 11M13.5 20L16.9129 19.3795C18.2719 19.1324 19.5233 18.4767 20.5 17.5C21.3958 16.6042 21.6179 15.2357 21.0513 14.1026L21 14C20.3728 12.7456 19.1761 11.8732 17.7899 11.66L13.5 11M19 13.5C19 13.1952 18.9764 12.8974 18.9315 12.6096C18.9089 12.4648 18.8809 12.3225 18.8478 12.1832M18.6862 16.5699C18.7205 16.8446 18.7267 17.1159 18.7042 17.3789" stroke="black" stroke-linecap="round"/>
</svg>
