<svg width="24" height="24" viewBox="0 0 24 24" fill="none" xmlns="http://www.w3.org/2000/svg">
<path fill-rule="evenodd" clip-rule="evenodd" d="M18.2141 14.4801C18.3606 14.3336 18.598 14.3336 18.7445 14.4801C18.8909 14.6265 18.8909 14.864 18.7445 15.0104L18.4793 15.2756C18.1257 17.0433 17.6838 18.1924 17.1535 18.7227C16.358 19.5182 15.2341 19.455 14.5018 18.7227C13.7696 17.9905 13.7063 16.8666 14.5018 16.0711C15.0321 15.5407 16.1812 15.0988 17.949 14.7452L18.2141 14.4801ZM5.19485 14.3303C5.29841 14.1509 5.52775 14.0894 5.70711 14.193L6.03187 14.3805C7.83091 14.2645 9.05519 14.394 9.70471 14.769C10.679 15.3315 10.9088 16.4335 10.391 17.3303C9.87324 18.2271 8.80399 18.5791 7.82971 18.0166C7.18019 17.6416 6.45591 16.646 5.65687 15.03L5.33211 14.8425C5.15275 14.739 5.0913 14.5096 5.19485 14.3303ZM12.7929 6.70711C13 6.70711 13.1679 6.875 13.1679 7.08211V7.45711C14.1679 8.95711 14.6679 10.0821 14.6679 10.8321C14.6679 11.9571 13.8285 12.7071 12.7929 12.7071C11.7574 12.7071 10.9179 11.9571 10.9179 10.8321C10.9179 10.0821 11.4179 8.95711 12.4179 7.45711V7.08211C12.4179 6.875 12.5858 6.70711 12.7929 6.70711ZM17.8467 5.7209C18.8469 5.45289 19.8519 5.96006 20.1431 7.04673C20.3372 7.77117 20.1454 8.98725 19.5677 10.695L19.6648 11.0572C19.7184 11.2572 19.5996 11.4629 19.3996 11.5165C19.1995 11.5701 18.9939 11.4513 18.9403 11.2513L18.8433 10.8891C17.4891 9.699 16.715 8.74174 16.5209 8.0173C16.2297 6.93063 16.8464 5.98892 17.8467 5.7209ZM7.49442 3.79713L7.56939 3.80933C7.76944 3.86294 7.88816 4.06856 7.83455 4.26861L7.7375 4.63084C8.31519 6.33854 8.50698 7.55462 8.31287 8.27906C8.0217 9.36573 7.01672 9.8729 6.01647 9.60489C5.01622 9.33687 4.39948 8.39516 4.69065 7.30849C4.88476 6.58405 5.6589 5.62679 7.01305 4.43672L7.11011 4.0745C7.16371 3.87445 7.36934 3.75573 7.56939 3.80933L7.49442 3.79713Z" stroke="black" stroke-linecap="round"/>
</svg>
