<svg width="24" height="24" viewBox="0 0 24 24" fill="none" xmlns="http://www.w3.org/2000/svg">
<path d="M15.5 18.5L15.4091 18.6986C14.4889 20.5881 12.3639 21.591 10.3058 21.0765L10 21L10.0053 20.8356C10.09 19.5315 11.1745 18.5 12.5 18.5C11.1193 18.5 10 17.3807 10 16L10.3058 15.9235C12.4349 15.3913 14.6355 16.4829 15.5 18.5ZM15.5 18.5L16.0877 15.2677C16.3179 14.0013 15.5065 12.7792 14.25 12.5C12.7525 12.1672 11.2843 11.7137 9.85997 11.144L9.5 11C7.99009 10.396 7 8.93364 7 7.30742V7M15.5 18.5L16.9447 17.8808C18.2718 17.3121 19.3543 16.2914 20 15L20.078 14.8439C20.673 13.654 20.8226 12.2906 20.5 11C20.1844 9.73774 19.3051 8.69116 18.1161 8.16272L17.75 8C16.2665 7.34067 14.6612 7 13.0378 7H10M7 7C5.89543 7 5 6.10457 5 5V4M7 7H10M10 7H5C3.89543 7 3 6.10457 3 5V3M20.6503 12.7744L20.54 12.9515C19.7452 14.166 18.3449 14.8966 16.8439 14.8027L16.1254 14.7574M20.0307 9.86186L18.2227 11.4687L18.0278 11.6324C17.0335 12.4205 15.752 12.7532 14.4999 12.5482M16.8049 7.62858L13.9923 10.1888L13.8143 10.342C12.6652 11.2778 11.1129 11.5563 9.7098 11.0777L9.8838 11.1319" stroke="black" stroke-linecap="round"/>
<path d="M11 9H11.1" stroke="black" stroke-width="1.5" stroke-linecap="round"/>
</svg>
