<svg width="24" height="24" viewBox="0 0 24 24" fill="none" xmlns="http://www.w3.org/2000/svg">
<path d="M8.43934 18.5607C8.16789 18.2892 8 17.9142 8 17.5C8 16.6716 8.67157 16 9.5 16C9.91421 16 10.2892 16.1679 10.5607 16.4393M12.0858 14.9142C11.7239 14.5523 11.5 14.0523 11.5 13.5C11.5 12.3954 12.3954 11.5 13.5 11.5C14.0523 11.5 14.5523 11.7239 14.9142 12.0858M15.9393 10.5607C15.6679 10.2892 15.5 9.91421 15.5 9.5C15.5 8.67157 16.1716 8 17 8C17.4142 8 17.7892 8.16789 18.0607 8.43934M20 9.19722C20 10.3235 19.4371 11.3753 18.5 12C17.5629 12.6247 17 13.6765 17 14.8028V15C17 16.1754 16.2 17.2 15.0597 17.4851L14.7489 17.5628C13.6236 17.8441 12.6435 18.5348 12 19.5C11.3753 20.4371 10.3235 21 9.19722 21H5C5.64029 20.3597 6 19.4913 6 18.5858V17.8028C6 16.6765 6.56288 15.6247 7.5 15C8.46519 14.3565 9.15589 13.3764 9.43724 12.2511L9.6362 11.4552C9.85001 10.6 10.6184 10 11.5 10C12.4193 10 13.2597 9.48061 13.6708 8.65836L14.1056 7.78885C14.6537 6.69253 15.7743 6 17 6H17.5858C18.4913 6 19.3597 5.64029 20 5V9.19722ZM5.5 11C6.32843 11 7 10.3284 7 9.5C7 8.67157 6.32843 8 5.5 8C4.67157 8 4 8.67157 4 9.5C4 10.3284 4.67157 11 5.5 11ZM5.5 6C6.32843 6 7 5.32843 7 4.5C7 3.67157 6.32843 3 5.5 3C4.67157 3 4 3.67157 4 4.5C4 5.32843 4.67157 6 5.5 6ZM10.5 7C11.3284 7 12 6.32843 12 5.5C12 4.67157 11.3284 4 10.5 4C9.67157 4 9 4.67157 9 5.5C9 6.32843 9.67157 7 10.5 7Z" stroke="black" stroke-linecap="round"/>
</svg>
