<svg width="24" height="24" viewBox="0 0 24 24" fill="none" xmlns="http://www.w3.org/2000/svg">
<path fill-rule="evenodd" clip-rule="evenodd" d="M7.5 3H12.5858C13.4913 3 14.3597 3.35971 15 4C15.6403 4.64029 16 5.50871 16 6.41421V6.5C16 7.47367 16.3158 8.42107 16.9 9.2L17.5 10C18.407 11.2094 18.4915 12.8475 17.7138 14.1437L17.029 15.285C16.3557 16.4072 16 17.6913 16 19C16 20.1476 15.1562 21.1205 14.0201 21.2828L9 22V18.4142C9 17.5842 9.30226 16.7853 9.84582 16.1647L10.0151 15.9849C10.614 15.386 10.8041 14.4905 10.5 13.7L10.4667 13.6133C10.1944 12.9053 10.1795 12.1267 10.4201 11.4123L10.5 11.2C10.8025 10.4739 10.637 9.63698 10.0808 9.08076L10 9C9.35971 8.35971 9 7.49129 9 6.58579V4.5C9 3.67157 8.32843 3 7.5 3ZM12.5 20C13.3284 20 14 19.3284 14 18.5C14 17.6716 13.3284 17 12.5 17C11.6716 17 11 17.6716 11 18.5C11 19.3284 11.6716 20 12.5 20ZM14 14.5C15.1046 14.5 16 13.6046 16 12.5C16 11.3954 15.1046 10.5 14 10.5C12.8954 10.5 12 11.3954 12 12.5C12 13.6046 12.8954 14.5 14 14.5ZM12.5 8.5C13.3284 8.5 14 7.82843 14 7C14 6.17157 13.3284 5.5 12.5 5.5C11.6716 5.5 11 6.17157 11 7C11 7.82843 11.6716 8.5 12.5 8.5Z" stroke="black" stroke-linecap="round"/>
</svg>
