<svg width="24" height="24" viewBox="0 0 24 24" fill="none" xmlns="http://www.w3.org/2000/svg">
<g clip-path="url(#clip0_21_426)">
<path d="M21.0001 3L20.626 3.00512C17.1396 3.10056 13.8161 4.52716 11.3432 7M21.0001 3L19.6886 2.79823C17.3135 2.43283 14.8923 2.49317 12.5384 2.97643L11.7443 3.13944C11.5231 3.18486 11.3112 3.26741 11.1175 3.3836C10.1704 3.95189 9.86326 5.18042 10.4316 6.12758L11.1006 7.24126L11.3432 7M21.0001 3L21.2019 4.31152C21.5673 6.68661 21.5069 9.10778 21.0237 11.4617L20.8606 12.2558C20.6385 13.3378 19.5813 14.0348 18.4993 13.8127C18.2781 13.7673 18.0662 13.6847 17.8725 13.5685L16.7575 12.8981L17.0001 12.6569M21.0001 3L20.995 3.37413C20.8995 6.8605 19.4729 10.184 17.0001 12.6569M21.0001 3C21.0001 6.62202 19.5612 10.0957 17.0001 12.6569M11.3432 7L7.56506 10.7782M17.0001 12.6569L13.2219 16.435M13.2219 16.435L7.56506 10.7782M13.2219 16.435L12.3077 17.3492C11.641 18.0159 11.641 19.0968 12.3077 19.7635C12.9744 20.4301 14.0552 20.4301 14.7219 19.7635L14.929 19.5563M7.56506 10.7782L6.65085 11.6924C5.98418 12.3591 4.9033 12.3591 4.23663 11.6924C3.56996 11.0257 3.56997 9.94484 4.23663 9.27817L4.44374 9.07107M11.4541 14.6673L7.71151 18.4099C7.04484 19.0766 7.04484 20.1574 7.71151 20.8241C8.37817 21.4908 9.45905 21.4908 10.1257 20.8241L10.3328 20.617M9.33283 12.5459L5.59019 16.2886C4.92352 16.9552 3.84264 16.9552 3.17597 16.2886C2.5093 15.6219 2.5093 14.541 3.17597 13.8744L3.38308 13.6673" stroke="black" stroke-linecap="round"/>
<path fill-rule="evenodd" clip-rule="evenodd" d="M13.1512 12.9702L13.2219 12.8995L13.1512 12.9702Z" stroke="black" stroke-width="1.5" stroke-linecap="round" stroke-linejoin="round"/>
<path fill-rule="evenodd" clip-rule="evenodd" d="M11.0299 10.8489L11.1006 10.7782L11.0299 10.8489Z" stroke="black" stroke-width="1.5" stroke-linecap="round" stroke-linejoin="round"/>
</g>
<defs>
<clipPath id="clip0_21_426">
<rect width="24" height="24" fill="white"/>
</clipPath>
</defs>
</svg>
