<svg width="24" height="24" viewBox="0 0 24 24" fill="none" xmlns="http://www.w3.org/2000/svg">
<path d="M12 7.5V17.5M8.58579 8.08579C7.80474 8.86683 7.80474 10.1332 8.58579 10.9142C9.05193 11.3804 9.69093 11.5683 10.2965 11.478M14.4142 17.9142C15.1953 17.1332 15.1953 15.8668 14.4142 15.0858M16.3678 11.0393C15.782 10.4536 14.8322 10.4536 14.2464 11.0393M7.64645 15.9C8.23223 16.4858 9.18198 16.4858 9.76777 15.9M12 21C17 21 19 17 19 13.1176C19 9.03922 16.6667 6 12 4C7.33333 6 5 9.03922 5 13.1176C5 17 7 21 12 21ZM12 6.67157L13.0619 7.73319C13.3417 7.58434 13.661 7.5 14 7.5C15.1046 7.5 16 8.39543 16 9.5C16 9.91214 15.8753 10.2952 15.6617 10.6134C16.4408 10.8849 17 11.6271 17 12.5C17 12.8644 16.9025 13.2061 16.7322 13.5003C16.9025 13.7939 17 14.1356 17 14.5C17 15.6046 16.1046 16.5 15 16.5C15 17.6046 14.1046 18.5 13 18.5C12.6357 18.5 12.2941 18.4026 11.9999 18.2324C11.7067 18.4024 11.3647 18.5 11 18.5C9.89543 18.5 9 17.6046 9 16.5L8.85074 16.4945C7.81588 16.4182 7 15.5544 7 14.5C7 14.1356 7.09747 13.7939 7.26776 13.4997C7.09747 13.2061 7 12.8644 7 12.5C7 11.6271 7.55917 10.8849 8.33884 10.6119C8.12466 10.2952 8 9.91214 8 9.5C8 8.39543 8.89543 7.5 10 7.5C10.339 7.5 10.6583 7.58434 10.9381 7.73319L12 6.67157Z" stroke="black" stroke-linecap="square"/>
</svg>
