<svg width="24" height="24" viewBox="0 0 24 24" fill="none" xmlns="http://www.w3.org/2000/svg">
<path fill-rule="evenodd" clip-rule="evenodd" d="M3.46533 20.5347L15.2109 8.78899L3.46533 20.5347ZM8.90751 9.23119C10.5261 10.4451 10.8541 12.7413 9.64015 14.3598C9.48395 14.5681 9.30614 14.7589 9.10985 14.9292L8.90751 15.0925C7.28896 13.8786 6.96095 11.5824 8.17487 9.96383C8.33107 9.75557 8.50888 9.56474 8.70517 9.39448L8.90751 9.23119ZM11.8381 6.30055C13.4567 7.51447 13.7847 9.81064 12.5708 11.4292C12.4146 11.6375 12.2368 11.8283 12.0405 11.9985L11.8381 12.1618C10.2196 10.9479 9.89157 8.65174 11.1055 7.03319C11.2617 6.82492 11.4395 6.6341 11.6358 6.46384L11.8381 6.30055ZM14.7687 3.36991C16.3873 4.58383 16.7153 6.88 15.5014 8.49855C15.3452 8.70682 15.1674 8.89764 14.9711 9.0679L14.7687 9.23119C13.1502 8.01727 12.8222 5.7211 14.0361 4.10255C14.1923 3.89428 14.3701 3.70346 14.5664 3.5332L14.7687 3.36991ZM20.63 9.23119C19.4161 10.8497 17.12 11.1778 15.5014 9.96387C15.2931 9.80766 15.1023 9.62984 14.932 9.43354L14.7687 9.23119C15.9826 7.61266 18.2788 7.28463 19.8973 8.49852C20.1056 8.65473 20.2964 8.83254 20.4667 9.02885L20.63 9.23119ZM17.6994 12.1618C16.4855 13.7804 14.1893 14.1084 12.5708 12.8945C12.3625 12.7383 12.1717 12.5605 12.0014 12.3642L11.8381 12.1618C13.052 10.5433 15.3482 10.2153 16.9667 11.4292C17.175 11.5854 17.3658 11.7632 17.5361 11.9595L17.6994 12.1618ZM14.7687 15.0925C13.5549 16.711 11.2587 17.039 9.64019 15.8252C9.43191 15.6689 9.24107 15.4911 9.07081 15.2948L8.90751 15.0925C10.1214 13.4739 12.4175 13.1459 14.0361 14.3598C14.2444 14.516 14.4352 14.6938 14.6055 14.8901L14.7687 15.0925ZM5.90751 12.2312C7.52606 13.4451 7.85408 15.7413 6.64015 17.3598C6.48395 17.5681 6.30614 17.7589 6.10985 17.9292L5.90751 18.0925C4.28896 16.8786 3.96095 14.5824 5.17487 12.9638C5.33107 12.7556 5.50888 12.5647 5.70517 12.3945L5.90751 12.2312ZM11.7687 18.0925C10.5549 19.711 8.25872 20.039 6.64019 18.8252C6.43191 18.6689 6.24107 18.4911 6.07081 18.2948L5.90751 18.0925C7.1214 16.4739 9.41754 16.1459 11.0361 17.3598C11.2444 17.516 11.4352 17.6938 11.6055 17.8901L11.7687 18.0925ZM20.7376 3.26301C21.0237 5.26589 19.632 7.12145 17.6292 7.40757C17.3715 7.44439 17.1108 7.45359 16.8516 7.43518L16.5931 7.40753C16.3069 5.40469 17.6986 3.54913 19.7014 3.26301C20.0451 3.21392 20.3939 3.21392 20.7376 3.26301Z" stroke="black" stroke-linecap="round"/>
</svg>
